<svg xmlns="http://www.w3.org/2000/svg" width="1000" height="220" viewBox="0 0 1000 220" role="img" aria-label="Joel Vandervalk. I build iOS apps. Some of them even ship.">
  <defs>
    <linearGradient id="glow" x1="0" y1="0" x2="1" y2="0">
      <stop offset="0" stop-color="#0E9F87" stop-opacity="0.9"/>
      <stop offset="1" stop-color="#0E9F87" stop-opacity="0"/>
    </linearGradient>
  </defs>
  <rect x="0.5" y="0.5" width="999" height="219" rx="14" fill="#F6F8FA" stroke="#D0D7DE"/>
  <rect x="70" y="47" width="22" height="22" rx="4" fill="#0E9F87" fill-opacity="0.10"/><rect x="96" y="47" width="22" height="22" rx="4" fill="#0E9F87"/><rect x="122" y="47" width="22" height="22" rx="4" fill="#0E9F87" fill-opacity="0.10"/><rect x="148" y="47" width="22" height="22" rx="4" fill="#0E9F87"/><rect x="174" y="47" width="22" height="22" rx="4" fill="#0E9F87" fill-opacity="0.10"/><rect x="70" y="73" width="22" height="22" rx="4" fill="#0E9F87" fill-opacity="0.10"/><rect x="96" y="73" width="22" height="22" rx="4" fill="#0E9F87" fill-opacity="0.10"/><rect x="122" y="73" width="22" height="22" rx="4" fill="#0E9F87"/><rect x="148" y="73" width="22" height="22" rx="4" fill="#0E9F87" fill-opacity="0.10"/><rect x="174" y="73" width="22" height="22" rx="4" fill="#0E9F87" fill-opacity="0.10"/><rect x="70" y="99" width="22" height="22" rx="4" fill="#0E9F87"/><rect x="96" y="99" width="22" height="22" rx="4" fill="#0E9F87"/><rect x="122" y="99" width="22" height="22" rx="4" fill="#0E9F87"/><rect x="148" y="99" width="22" height="22" rx="4" fill="#0E9F87"/><rect x="174" y="99" width="22" height="22" rx="4" fill="#0E9F87"/><rect x="70" y="125" width="22" height="22" rx="4" fill="#0E9F87"/><rect x="96" y="125" width="22" height="22" rx="4" fill="#0E9F87" fill-opacity="0.10"/><rect x="122" y="125" width="22" height="22" rx="4" fill="#0E9F87"/><rect x="148" y="125" width="22" height="22" rx="4" fill="#0E9F87" fill-opacity="0.10"/><rect x="174" y="125" width="22" height="22" rx="4" fill="#0E9F87"/><rect x="70" y="151" width="22" height="22" rx="4" fill="#0E9F87" fill-opacity="0.10"/><rect x="96" y="151" width="22" height="22" rx="4" fill="#0E9F87"/><rect x="122" y="151" width="22" height="22" rx="4" fill="#0E9F87"/><rect x="148" y="151" width="22" height="22" rx="4" fill="#0E9F87"/><rect x="174" y="151" width="22" height="22" rx="4" fill="#0E9F87" fill-opacity="0.10"/>
  <text x="260" y="98" font-family="-apple-system, BlinkMacSystemFont, 'Segoe UI', Helvetica, Arial, sans-serif" font-size="46" font-weight="700" fill="#1F2328">Joel Vandervalk</text>
  <text x="260" y="138" font-family="-apple-system, BlinkMacSystemFont, 'Segoe UI', Helvetica, Arial, sans-serif" font-size="21" fill="#59636E">I build iOS apps. Some of them even ship.</text>
  <text x="260" y="176" font-family="ui-monospace, SFMono-Regular, Menlo, Consolas, monospace" font-size="15" fill="#0E9F87">Swift · SwiftUI · TypeScript · Supabase</text>
  <rect x="260" y="112" width="360" height="3" rx="1.5" fill="url(#glow)"/>
</svg>
